# xmcd CD database file
#
# Track frame offsets:
#	150
#	16692
#	35905
#	58850
#	78457
#	92937
#	111870
#	135567
#	152397
#	175052
#	190367
#	211917
#	231910
#	245597
#	258740
#
# Disc length: 3621 seconds
#
# Revision: 0
# Processed by: cddbd v1.5.2PL0 Copyright (c) Steve Scherf et al.
# Submitted via: CDex 1.51
#
DISCID=ce0e230f
DTITLE=Randall Leonard - Pastorale For The Winged Ones
DYEAR=1999
DGENRE=New Age
TTITLE0=Carried By A Summer Breeze
TTITLE1=A Tear Drop Falls Forever
TTITLE2=The Eternal Now and Then
TTITLE3=Feathered Dreams
TTITLE4=The Sweet Scent Of Light
TTITLE5=Terrestrial Moon
TTITLE6=Sunlit Shadows
TTITLE7=The Reign Of The Angels
TTITLE8=Pastorale For The Winged Ones
TTITLE9=The Wing Span Of My Heart
TTITLE10=A Cathedral Of Evergreens
TTITLE11=Leaning On Clouds
TTITLE12=While Birds Sing In The Meadow
TTITLE13=Butterfly Rush
TTITLE14=Be The Child Again and Fly With The Angels
EXTD=YEAR: 1999
EXTT0=
EXTT1=
EXTT2=
EXTT3=
EXTT4=
EXTT5=
EXTT6=
EXTT7=
EXTT8=
EXTT9=
EXTT10=
EXTT11=
EXTT12=
EXTT13=
EXTT14=
PLAYORDER=
